 <svg  version="1.0" xmlns="http://www.w3.org/2000/svg"  width="300.000000pt" height="232.000000pt" viewBox="0 0 300.000000 232.000000"  preserveAspectRatio="xMidYMid meet">  <g transform="translate(0.000000,232.000000) scale(0.100000,-0.100000)" fill="#ffff00" stroke="none"> <path d="M1133 1954 c-1 -65 -6 -111 -13 -120 -10 -11 -8 -14 11 -14 22 0 24 4 26 57 2 61 17 83 59 83 24 0 35 -18 29 -47 -2 -10 -6 -37 -8 -60 -4 -35 -2 -43 11 -43 14 0 17 12 19 70 2 65 0 72 -23 87 -20 13 -30 14 -50 4 -35 -16 -34 -16 -34 39 0 33 -4 50 -12 50 -10 0 -13 -29 -15 -106z"/> <path d="M875 1866 c-52 -52 -14 -140 60 -140 44 0 85 39 85 80 0 33 -16 22 -23 -16 -8 -38 -49 -57 -87 -40 -22 10 -23 13 -9 23 9 7 33 27 54 46 46 40 39 64 -18 69 -28 2 -42 -3 -62 -22z m79 1 c16 -12 14 -16 -27 -50 -25 -20 -48 -37 -51 -37 -9 0 -7 53 2 66 7 11 42 33 53 34 3 0 13 -6 23 -13z"/> <path d="M1413 1858 c-11 -5 -29 -25 -38 -43 -23 -42 -13 -81 25 -103 17 -9 30 -22 30 -28 0 -6 7 -17 15 -24 12 -10 15 -9 15 5 0 18 67 83 99 97 13 6 12 8 -6 14 -13 3 -23 12 -23 20 0 21 -43 63 -70 68 -14 3 -35 0 -47 -6z m68 -18 c4 0 15 -13 23 -28 18 -35 5 -69 -36 -91 -25 -14 -29 -14 -55 5 -41 30 -41 65 -2 98 17 15 38 25 46 22 8 -4 19 -6 24 -6z"/> <path d="M1134 1758 c-123 -149 -160 -234 -135 -310 12 -37 68 -94 146 -151 65 -46 121 -105 134 -140 16 -41 13 -112 -4 -155 -12 -26 -13 -38 -4 -41 47 -15 118 -116 119 -168 0 -41 14 -24 50 59 32 76 35 90 35 183 -1 88 -4 106 -28 155 -15 30 -50 84 -77 120 -153 198 -181 239 -195 279 -23 68 -19 133 11 192 14 28 23 53 21 55 -3 3 -35 -32 -73 -78z m6 -125 c0 -56 41 -126 171 -293 36 -47 77 -106 92 -132 31 -54 57 -147 56 -198 l-1 -35 -10 35 c-17 60 -59 170 -68 175 -13 8 -6 -15 18 -64 12 -24 25 -66 28 -92 8 -59 -3 -139 -19 -139 -17 0 -99 98 -92 110 14 22 8 146 -9 181 -18 38 -71 94 -131 139 -153 114 -172 157 -119 267 32 65 40 71 47 34 8 -40 74 -173 100 -203 12 -13 27 -31 32 -40 6 -8 29 -41 53 -71 23 -31 47 -68 54 -82 6 -14 16 -25 21 -25 5 0 2 11 -7 25 -9 14 -24 37 -33 53 -10 15 -23 33 -29 39 -25 26 -110 157 -141 216 -22 43 -32 76 -32 107 -1 33 2 41 9 30 5 -8 10 -25 10 -37z"/> <path d="M737 1670 c-3 -11 0 -20 6 -20 16 0 97 -43 97 -51 0 -8 -98 -21 -109 -15 -9 6 -24 -35 -16 -42 3 -3 10 0 17 6 7 5 40 13 73 17 96 12 98 18 22 65 -37 23 -67 46 -67 51 0 17 -18 9 -23 -11z"/> <path d="M1603 1589 c-7 -7 -36 -10 -77 -7 -58 3 -66 2 -66 -13 0 -21 16 -33 25 -19 7 11 74 14 100 4 9 -4 21 -18 27 -33 9 -21 12 -23 15 -8 3 10 0 24 -7 32 -7 9 -8 15 0 20 12 7 14 35 2 35 -4 0 -13 -5 -19 -11z"/> <path d="M937 1443 c-9 -14 -47 -202 -47 -231 0 -26 3 -28 30 -24 88 13 198 -50 246 -142 43 -82 64 -85 82 -13 22 86 -13 145 -141 238 -102 74 -127 99 -147 142 -10 22 -20 35 -23 30z m140 -186 c117 -89 133 -109 141 -172 6 -57 -10 -59 -37 -6 -34 66 -121 124 -204 136 -49 8 -51 10 -47 70 3 39 18 67 32 59 7 -4 58 -43 115 -87z"/> <path d="M735 1368 c-46 -16 -53 -25 -66 -82 -10 -47 -9 -58 9 -99 22 -50 30 -54 65 -35 12 6 42 16 66 23 40 10 44 14 47 45 5 56 13 107 20 123 4 12 -5 18 -33 26 -46 13 -68 13 -108 -1z m97 -92 c-2 -28 -7 -55 -12 -59 -4 -4 -28 -14 -53 -22 -44 -13 -48 -13 -57 5 -5 10 -10 36 -10 58 0 45 22 71 72 81 52 11 65 -3 60 -63z"/> <path d="M1784 1164 c4 -96 12 -186 18 -199 20 -44 104 -57 191 -31 39 12 52 12 84 0 88 -31 153 -3 153 65 0 45 -39 94 -136 172 -61 48 -67 51 -82 36 -12 -13 -13 -20 -5 -28 9 -9 5 -19 -18 -39 -34 -33 -40 -90 -13 -129 21 -29 7 -41 -51 -41 -65 0 -85 21 -85 88 0 31 -3 108 -7 170 -6 111 -6 112 -31 112 l-25 0 7 -176z m294 -56 c18 -18 14 -52 -9 -82 -20 -26 -22 -26 -40 -10 -19 17 -27 83 -12 97 11 11 48 8 61 -5z m90 -73 c22 -48 11 -65 -44 -65 -27 0 -32 21 -9 40 8 7 15 21 15 31 0 28 25 23 38 -6z"/> <path d="M582 1263 c-83 -129 -114 -249 -94 -365 32 -186 179 -331 377 -373 74 -16 195 -20 195 -7 0 4 -24 13 -52 19 -87 21 -228 96 -289 155 -110 106 -150 199 -150 354 -1 82 4 115 26 179 14 42 24 79 22 82 -3 2 -18 -18 -35 -44z m-38 -354 c13 -72 71 -167 152 -246 67 -66 47 -70 -28 -5 -88 75 -148 194 -148 292 1 34 15 8 24 -41z"/> <path d="M765 1122 c-95 -34 -145 -59 -145 -72 0 -6 10 -10 22 -10 25 0 79 -39 128 -93 l35 -38 55 30 c70 38 161 61 239 61 34 0 61 3 61 6 0 18 -68 88 -108 111 -37 22 -60 27 -126 30 -69 3 -93 -1 -161 -25z m206 -13 c66 -21 97 -39 102 -59 4 -17 0 -20 -26 -20 -35 0 -94 -17 -175 -49 -53 -21 -54 -21 -80 -2 -15 11 -40 33 -55 49 l-28 30 44 21 c36 18 96 31 173 40 6 0 26 -4 45 -10z"/> <path d="M2345 1097 c-81 -81 -42 -190 63 -173 38 6 40 -3 10 -32 -27 -24 -70 -42 -104 -42 -19 0 -24 -5 -24 -24 0 -34 12 -38 63 -25 55 13 115 61 133 105 28 66 10 170 -34 205 -36 28 -69 24 -107 -14z m71 -25 c16 -11 34 -48 34 -71 0 -26 -42 -38 -76 -22 -28 12 -32 46 -8 79 16 23 31 27 50 14z"/> <path d="M1618 1109 c-16 -9 -16 -12 2 -42 12 -20 20 -50 20 -79 0 -57 -35 -104 -100 -133 -41 -18 -47 -29 -31 -54 21 -33 146 56 170 122 16 40 14 96 -5 150 -16 48 -26 54 -56 36z"/> <path d="M976 955 c-82 -21 -176 -76 -225 -131 -48 -55 -50 -64 -16 -64 44 0 140 -38 242 -95 54 -30 118 -59 142 -64 63 -14 127 8 191 66 l52 47 -4 58 c-6 76 -44 132 -113 167 -63 31 -180 38 -269 16z m252 -44 c17 -11 34 -21 39 -21 16 0 55 -70 60 -109 5 -34 1 -47 -22 -77 -68 -89 -175 -95 -297 -16 -94 61 -120 73 -191 86 l-58 11 28 27 c86 82 93 87 178 113 75 22 223 15 263 -14z"/> </g> </svg> 